With an insane asylum standing in for everyday society, Milos Forman's 1975 film adaptation of Ken Kesey's novel is a comically sharp indictment of the Establishment urge to conform. Playing crazy to avoid prison work detail, manic free spirit Randle P. McMurphy (Jack Nicholson) is sent to the state mental hospital for evaluation. There he encounters a motley crew of mostly voluntary inmates, including cowed mama's boy Billy (Brad Dourif) and silent Native American Chief Bromden (Will Sampson), presided over by the icy Nurse Ratched (Louise Fletcher). Ratched and McMurphy recognize that each is the other's worst enemy: an authority figure who equates sanity with correct behavior, and a misfit who is charismatic enough to dismantle the system simply by living as he pleases. McMurphy proceeds to instigate group insurrections large and small, ranging from a restorative basketball game to an unfettered afternoon boat trip and a tragic after-hours party with hookers and booze. Nurse Ratched, however, has the machinery of power on her side to ensure that McMurphy will not defeat her. Still, McMurphy's message to live free or die is ultimately not lost on one inmate, revealing that escape is still possible even from the most oppressive conditions. 

   General
      Complete name : One.Flew.Over.the.Cuckoo's.Nest.1975.Blu-Ray.720p.AC3.x264-HDBRiSe.mkv
      Format : Matroska
      File size : 6.53 GiB
      Duration : 2h 13mn
      Overall bit rate : 6 989 Kbps
      Movie name : Encoded_by_HDBRiSe
      Encoded date : UTC 2010-01-20 21:50:25
      Writing application : mkvmerge v2.9.8 ('C'est le bon') built on Aug 13 2009 12:49:06
      Writing library : libebml v0.7.7 + libmatroska v0.8.1
   Video #1
      ID : 1
      Format : AVC
      Format/Info : Advanced Video Codec
      Format profile : High@L4.1
      Format settings, CABAC : Yes
      Format settings, ReFrames : 4 frames
      Muxing mode : Container profile=Unknown@4.1
      Codec ID : V_MPEG4/ISO/AVC
      Duration : 2h 13mn
      Bit rate : 5 826 Kbps
      Nominal bit rate : 5 963 Kbps
      Width : 1 280 pixels
      Height : 720 pixels
      Display aspect ratio : 16:9
      Frame rate : 23.976 fps
      Resolution : 24 bits
      Colorimetry : 4:2:0
      Scan type : Progressive
      Bits/(Pixel*Frame) : 0.264
      Stream size : 5.44 GiB (83%)
      Title : One.Flew.Over.the.Cuckoo's.Nest.1975.Blu-Ray.720p.HDBRiSe
      Writing library : x264 core 80 r1376M 3feaec2
      Language : English
   Audio #2
      ID : 2
      Format : AC-3
      Format/Info : Audio Coding 3
      Codec ID : A_AC3
      Duration : 2h 13mn
      Bit rate mode : Constant
      Bit rate : 640 Kbps
      Channel(s) : 6 channels
      Channel positions : Front: L C R, Surround: L R, LFE
      Sampling rate : 48.0 KHz
      Stream size : 612 MiB (9%)
      Title : One.Flew.Over.the.Cuckoo's.Nest.1975.Blu-Ray.AC3.HDBRiSe
      Language : English
   Audio #3
      ID : 3
      Format : AC-3
      Format/Info : Audio Coding 3
      Codec ID : A_AC3
      Duration : 2h 13mn
      Bit rate mode : Constant
      Bit rate : 192 Kbps
      Channel(s) : 1 channel
      Channel positions : C
      Sampling rate : 48.0 KHz
      Stream size : 184 MiB (3%)
      Title : One.Flew.Over.the.Cuckoo's.Nest.1975.Blu-Ray.AC3.HDBRiSe
      Language : French
   Audio #4
      ID : 4
      Format : AC-3
      Format/Info : Audio Coding 3
      Codec ID : A_AC3
      Duration : 2h 13mn
      Bit rate mode : Constant
      Bit rate : 192 Kbps
      Channel(s) : 1 channel
      Channel positions : C
      Sampling rate : 48.0 KHz
      Stream size : 184 MiB (3%)
      Title : One.Flew.Over.the.Cuckoo's.Nest.1975.Blu-Ray.AC3.HDBRiSe
      Language : Spanish
   Text #5
      ID : 5
      Format : UTF-8
      Codec ID : S_TEXT/UTF8
      Codec ID/Info : UTF-8 Plain Text
      Language : English
   Text #6
      ID : 6
      Format : UTF-8
      Codec ID : S_TEXT/UTF8
      Codec ID/Info : UTF-8 Plain Text
      Title : SDH
      Language : English
   Text #7
      ID : 7
      Format : UTF-8
      Codec ID : S_TEXT/UTF8
      Codec ID/Info : UTF-8 Plain Text
      Language : Romanian
   Text #8
      ID : 8
      Format : UTF-8
      Codec ID : S_TEXT/UTF8
      Codec ID/Info : UTF-8 Plain Text
      Language : French
   Text #9
      ID : 9
      Format : UTF-8
      Codec ID : S_TEXT/UTF8
      Codec ID/Info : UTF-8 Plain Text
      Title : SDH
      Language : German
   Text #10
      ID : 10
      Format : UTF-8
      Codec ID : S_TEXT/UTF8
      Codec ID/Info : UTF-8 Plain Text
      Title : SDH
      Language : Italian
   Text #11
      ID : 11
      Format : UTF-8
      Codec ID : S_TEXT/UTF8
      Codec ID/Info : UTF-8 Plain Text
      Language : Spanish
   Text #12
      ID : 12
      Format : UTF-8
      Codec ID : S_TEXT/UTF8
      Codec ID/Info : UTF-8 Plain Text
      Title : Brazilian
      Language : Portuguese
   Text #13
      ID : 13
      Format : UTF-8
      Codec ID : S_TEXT/UTF8
      Codec ID/Info : UTF-8 Plain Text
      Language : Danish
   Text #14
      ID : 14
      Format : UTF-8
      Codec ID : S_TEXT/UTF8
      Codec ID/Info : UTF-8 Plain Text
      Language : Finnish
   Text #15
      ID : 15
      Format : UTF-8
      Codec ID : S_TEXT/UTF8
      Codec ID/Info : UTF-8 Plain Text
      Language : Norwegian
   Text #16
      ID : 16
      Format : UTF-8
      Codec ID : S_TEXT/UTF8
      Codec ID/Info : UTF-8 Plain Text
      Language : Swedish

IMDB: tt0073486

English, French and Spanish audio; English, Romanian, French, German, Italian, French, Brazilian Portuguese, Danish, Finnish, Norwegian and Swedish subtitles - all included in the mkv container.

Milos Forman - One Flew Over the Cuckoo's Nest (1975)  HD720